<?xml version="1.0" standalone="no"?>
<!DOCTYPE svg PUBLIC "-//W3C//DTD SVG 20010904//EN"
 "http://www.w3.org/TR/2001/REC-SVG-20010904/DTD/svg10.dtd">
<svg version="1.0" xmlns="http://www.w3.org/2000/svg"
 width="369pt" height="385pt" viewBox="143 110 369 385"
 preserveAspectRatio="xMidYMid meet">
<metadata>
Created by potrace 1.16, written by Peter Selinger 2001-2019
</metadata>
<g transform="translate(0.000000,501.000000) scale(0.100000,-0.100000)"
fill="#D4972E" stroke="none">
<path d="M2955 3871 c-255 -46 -484 -139 -710 -287 -85 -56 -195 -149 -195
-165 0 -6 218 -9 592 -9 l591 2 84 -229 c46 -125 116 -315 155 -421 47 -129
77 -197 91 -207 17 -12 62 -15 229 -15 114 0 209 4 212 8 3 5 -20 76 -50 158
-30 82 -70 190 -88 239 -42 114 -233 632 -291 789 -24 66 -51 127 -60 135 -25
25 -425 27 -560 2z"/>
<path d="M3684 3824 c4 -16 80 -227 168 -469 88 -242 184 -508 214 -591 29
-84 60 -169 69 -190 l15 -37 160 6 c90 4 170 12 183 18 21 11 131 90 337 243
52 38 97 71 99 73 8 5 -34 88 -87 173 -100 159 -205 276 -392 437 -121 104
-284 203 -436 264 -111 44 -244 87 -294 95 l-43 7 7 -29z"/>
<path d="M2314 3300 c-462 -6 -396 15 -536 -167 -88 -115 -153 -228 -202 -352
-40 -101 -69 -208 -62 -227 5 -12 116 -14 676 -14 l670 0 28 28 c23 21 39 61
77 182 26 85 79 232 117 325 39 94 72 182 75 198 l5 27 -118 1 c-66 1 -168 2
-229 3 -60 0 -286 -1 -501 -4z"/>
<path d="M4834 2642 c-78 -59 -246 -183 -374 -277 -648 -474 -630 -460 -630
-512 0 -19 18 -89 39 -156 22 -67 60 -188 85 -268 26 -80 52 -154 60 -164 12
-17 16 -16 62 16 27 18 110 79 184 134 74 55 184 137 243 180 378 278 563 423
577 450 12 23 15 66 14 185 -1 132 -5 173 -28 274 -31 134 -66 238 -81 242 -5
1 -74 -45 -151 -104z"/>
<path d="M1476 2386 c-13 -52 -26 -217 -26 -336 0 -329 105 -662 303 -955 91
-135 106 -153 117 -135 11 17 20 45 164 496 110 342 176 531 242 687 l28 69
-21 16 c-11 10 -69 54 -128 100 l-108 82 -282 0 -283 0 -6 -24z"/>
<path d="M2347 1992 c-83 -216 -378 -1112 -377 -1145 0 -33 28 -73 94 -135 73
-68 212 -166 219 -154 3 4 66 192 141 417 74 226 169 511 211 635 41 123 75
239 75 256 0 37 -24 61 -180 178 -58 44 -110 83 -116 88 -7 5 -29 -40 -67
-140z"/>
<path d="M5010 1810 c-36 -27 -258 -194 -495 -372 l-430 -323 1 -45 c1 -25 4
-67 8 -95 6 -45 5 -52 -16 -66 -23 -16 -28 -13 -308 202 -157 121 -329 253
-383 294 -54 41 -107 75 -117 75 -20 0 -367 -227 -390 -255 -17 -20 -3 -35
135 -143 131 -102 264 -207 765 -605 405 -322 472 -371 528 -387 40 -11 706
-12 757 -1 17 3 30 12 30 18 0 7 -161 134 -357 283 l-357 271 67 56 c282 235
469 497 571 798 34 101 64 258 59 310 l-3 35 -65 -50z"/>
<path d="M2659 1055 c-42 -35 -87 -82 -102 -102 -33 -50 -151 -426 -143 -459
15 -60 306 -167 571 -209 136 -22 381 -23 514 -2 115 19 241 53 241 66 0 8
-149 124 -595 464 -93 72 -220 170 -281 218 -62 49 -116 89 -120 89 -5 0 -43
-29 -85 -65z"/>
</g>
</svg>
